<svg width="512" height="512" viewBox="0 0 512 512" fill="none" xmlns="http://www.w3.org/2000/svg">
<path d="M96 336L256 416V480L96 400V336Z" fill="#1A1A1A"/>
<path d="M96 336L256 416V480L96 400V336Z" fill="white" fill-opacity="0.2" stroke="white" stroke-width="16" stroke-linejoin="round"/>
<path d="M256 416L416 336V400L256 480V416Z" fill="#1A1A1A"/>
<path d="M256 416L416 336V400L256 480V416Z" fill="white" fill-opacity="0.4" stroke="white" stroke-width="16" stroke-linejoin="round"/>
<path d="M304 433.6C309.302 433.6 313.6 429.302 313.6 424C313.6 418.698 309.302 414.4 304 414.4C298.698 414.4 294.4 418.698 294.4 424C294.4 429.302 298.698 433.6 304 433.6Z" fill="#1A1A1A"/>
<path d="M336 417.6C341.302 417.6 345.6 413.302 345.6 408C345.6 402.698 341.302 398.4 336 398.4C330.698 398.4 326.4 402.698 326.4 408C326.4 413.302 330.698 417.6 336 417.6Z" fill="#666666"/>
<path d="M368 401.6C373.302 401.6 377.6 397.302 377.6 392C377.6 386.698 373.302 382.4 368 382.4C362.698 382.4 358.4 386.698 358.4 392C358.4 397.302 362.698 401.6 368 401.6Z" fill="#666666"/>
<path d="M256 256L416 336L256 416L96 336L256 256Z" fill="#1A1A1A"/>
<path d="M256 256L416 336L256 416L96 336L256 256Z" fill="white" fill-opacity="0.15" stroke="white" stroke-width="16" stroke-linejoin="round"/>
<path d="M96 240L256 320V384L96 304V240Z" fill="#1A1A1A"/>
<path d="M96 240L256 320V384L96 304V240Z" fill="white" fill-opacity="0.4" stroke="white" stroke-width="16" stroke-linejoin="round"/>
<path d="M256 320L416 240V304L256 384V320Z" fill="#1A1A1A"/>
<path d="M256 320L416 240V304L256 384V320Z" fill="white" fill-opacity="0.6" stroke="white" stroke-width="16" stroke-linejoin="round"/>
<path d="M304 337.6C309.302 337.6 313.6 333.302 313.6 328C313.6 322.698 309.302 318.4 304 318.4C298.698 318.4 294.4 322.698 294.4 328C294.4 333.302 298.698 337.6 304 337.6Z" fill="#1A1A1A"/>
<path d="M336 321.6C341.302 321.6 345.6 317.302 345.6 312C345.6 306.698 341.302 302.4 336 302.4C330.698 302.4 326.4 306.698 326.4 312C326.4 317.302 330.698 321.6 336 321.6Z" fill="#666666"/>
<path d="M368 305.6C373.302 305.6 377.6 301.302 377.6 296C377.6 290.698 373.302 286.4 368 286.4C362.698 286.4 358.4 290.698 358.4 296C358.4 301.302 362.698 305.6 368 305.6Z" fill="#666666"/>
<path d="M256 160L416 240L256 320L96 240L256 160Z" fill="#1A1A1A"/>
<path d="M256 160L416 240L256 320L96 240L256 160Z" fill="white" fill-opacity="0.25" stroke="white" stroke-width="16" stroke-linejoin="round"/>
<path d="M96 144L256 224V288L96 208V144Z" fill="#1A1A1A"/>
<path d="M96 144L256 224V288L96 208V144Z" fill="white" fill-opacity="0.2" stroke="white" stroke-width="16" stroke-linejoin="round"/>
<path d="M256 224L416 144V208L256 288V224Z" fill="#1A1A1A"/>
<path d="M256 224L416 144V208L256 288V224Z" fill="white" fill-opacity="0.4" stroke="white" stroke-width="16" stroke-linejoin="round"/>
<path d="M304 241.6C309.302 241.6 313.6 237.302 313.6 232C313.6 226.698 309.302 222.4 304 222.4C298.698 222.4 294.4 226.698 294.4 232C294.4 237.302 298.698 241.6 304 241.6Z" fill="#1A1A1A"/>
<path d="M336 225.6C341.302 225.6 345.6 221.302 345.6 216C345.6 210.698 341.302 206.4 336 206.4C330.698 206.4 326.4 210.698 326.4 216C326.4 221.302 330.698 225.6 336 225.6Z" fill="#666666"/>
<path d="M368 209.6C373.302 209.6 377.6 205.302 377.6 200C377.6 194.698 373.302 190.4 368 190.4C362.698 190.4 358.4 194.698 358.4 200C358.4 205.302 362.698 209.6 368 209.6Z" fill="#666666"/>
<path d="M256 64L416 144L256 224L96 144L256 64Z" fill="#1A1A1A"/>
<path d="M256 64L416 144L256 224L96 144L256 64Z" fill="white" fill-opacity="0.15" stroke="white" stroke-width="16" stroke-linejoin="round"/>
<rect x="308.03" y="83.1772" width="10" height="188" transform="rotate(63.4432 308.03 83.1772)" fill="white"/>
<path d="M146.277 150.267C149.191 150.42 151.678 148.181 151.83 145.266C151.983 142.352 149.744 139.866 146.83 139.713C143.916 139.56 141.429 141.799 141.277 144.713C141.124 147.628 143.363 150.114 146.277 150.267Z" fill="#EF4444"/>
<path d="M163.199 141.428C166.114 141.581 168.6 139.342 168.753 136.428C168.906 133.513 166.667 131.027 163.752 130.874C160.838 130.721 158.352 132.96 158.199 135.874C158.046 138.789 160.285 141.275 163.199 141.428Z" fill="#F59E0B"/>
<path d="M180.851 132.589C183.765 132.742 186.252 130.503 186.404 127.589C186.557 124.674 184.318 122.188 181.404 122.035C178.49 121.882 176.003 124.121 175.851 127.035C175.698 129.95 177.937 132.436 180.851 132.589Z" fill="#22C55E"/>
</svg>
